REM DIRINDEX 1\2\4,1\2\5,1\2\6,1\3\7,1\3\8,1\3\9,1\3\10
REM DIRNAME cjc058,folder01,folder02,folder03,folder04,folder05,folder06,folder07,folder08,folder09
TITLE ""
FILE "b_44.mp3" MP3
  TRACK 01 AUDIO
    TITLE "0:"
    INDEX 01 00:00:00
  TRACK 02 AUDIO
    TITLE "10:cjc058_3821"
    INDEX 01 00:00:11
  TRACK 03 AUDIO
    TITLE "0:"
    INDEX 01 00:05:32
  TRACK 04 AUDIO
    TITLE "10:cjc058_3822"
    INDEX 01 00:05:69
  TRACK 05 AUDIO
    TITLE "0:"
    INDEX 01 00:08:07
  TRACK 06 AUDIO
    TITLE "7:cjc058_3823"
    INDEX 01 00:08:50
  TRACK 07 AUDIO
    TITLE "0:"
    INDEX 01 00:10:55
  TRACK 08 AUDIO
    TITLE "8:cjc058_3824"
    INDEX 01 00:11:07
  TRACK 09 AUDIO
    TITLE "0:"
    INDEX 01 00:12:67
  TRACK 10 AUDIO
    TITLE "9:cjc058_3825"
    INDEX 01 00:13:32
  TRACK 11 AUDIO
    TITLE "0:"
    INDEX 01 00:17:25
  TRACK 12 AUDIO
    TITLE "7:cjc058_3826"
    INDEX 01 00:18:31
  TRACK 13 AUDIO
    TITLE "0:"
    INDEX 01 00:20:24
  TRACK 14 AUDIO
    TITLE "8:cjc058_3827"
    INDEX 01 00:20:51
  TRACK 15 AUDIO
    TITLE "0:"
    INDEX 01 00:22:38
  TRACK 16 AUDIO
    TITLE "9:cjc058_3828"
    INDEX 01 00:23:03
  TRACK 17 AUDIO
    TITLE "0:"
    INDEX 01 00:32:39
  TRACK 18 AUDIO
    TITLE "7:cjc058_3829"
    INDEX 01 00:33:44
  TRACK 19 AUDIO
    TITLE "0:"
    INDEX 01 00:35:35
  TRACK 20 AUDIO
    TITLE "8:cjc058_3830"
    INDEX 01 00:35:64
  TRACK 21 AUDIO
    TITLE "0:"
    INDEX 01 00:38:67
  TRACK 22 AUDIO
    TITLE "9:cjc058_3831"
    INDEX 01 00:39:33
  TRACK 23 AUDIO
    TITLE "0:"
    INDEX 01 00:43:09
  TRACK 24 AUDIO
    TITLE "7:cjc058_3832"
    INDEX 01 00:44:12
  TRACK 25 AUDIO
    TITLE "0:"
    INDEX 01 00:46:53
  TRACK 26 AUDIO
    TITLE "8:cjc058_3833"
    INDEX 01 00:47:07
  TRACK 27 AUDIO
    TITLE "0:"
    INDEX 01 00:48:36
  TRACK 28 AUDIO
    TITLE "9:cjc058_3834"
    INDEX 01 00:49:02
  TRACK 29 AUDIO
    TITLE "0:"
    INDEX 01 00:53:58
  TRACK 30 AUDIO
    TITLE "7:cjc058_3835"
    INDEX 01 00:54:60
  TRACK 31 AUDIO
    TITLE "0:"
    INDEX 01 00:57:52
  TRACK 32 AUDIO
    TITLE "8:cjc058_3836"
    INDEX 01 00:58:07
  TRACK 33 AUDIO
    TITLE "0:"
    INDEX 01 00:59:39
  TRACK 34 AUDIO
    TITLE "9:cjc058_3837"
    INDEX 01 01:00:06
  TRACK 35 AUDIO
    TITLE "0:"
    INDEX 01 01:03:14
  TRACK 36 AUDIO
    TITLE "7:cjc058_3838"
    INDEX 01 01:04:15
  TRACK 37 AUDIO
    TITLE "0:"
    INDEX 01 01:07:21
  TRACK 38 AUDIO
    TITLE "8:cjc058_3839"
    INDEX 01 01:07:49
  TRACK 39 AUDIO
    TITLE "0:"
    INDEX 01 01:09:52
  TRACK 40 AUDIO
    TITLE "9:cjc058_3840"
    INDEX 01 01:10:20
  TRACK 41 AUDIO
    TITLE "0:"
    INDEX 01 01:16:73
  TRACK 42 AUDIO
    TITLE "7:cjc058_3841"
    INDEX 01 01:18:02
  TRACK 43 AUDIO
    TITLE "0:"
    INDEX 01 01:21:43
  TRACK 44 AUDIO
    TITLE "8:cjc058_3842"
    INDEX 01 01:21:72
  TRACK 45 AUDIO
    TITLE "0:"
    INDEX 01 01:25:31
  TRACK 46 AUDIO
    TITLE "9:cjc058_3843"
    INDEX 01 01:25:74
  TRACK 47 AUDIO
    TITLE "0:"
    INDEX 01 01:29:74
  TRACK 48 AUDIO
    TITLE "7:cjc058_3844"
    INDEX 01 01:31:00
  TRACK 49 AUDIO
    TITLE "0:"
    INDEX 01 01:33:31
  TRACK 50 AUDIO
    TITLE "8:cjc058_3845"
    INDEX 01 01:33:58
  TRACK 51 AUDIO
    TITLE "0:"
    INDEX 01 01:36:03
  TRACK 52 AUDIO
    TITLE "9:cjc058_3846"
    INDEX 01 01:36:45
  TRACK 53 AUDIO
    TITLE "0:"
    INDEX 01 01:40:11
  TRACK 54 AUDIO
    TITLE "7:cjc058_3847"
    INDEX 01 01:41:16
  TRACK 55 AUDIO
    TITLE "0:"
    INDEX 01 01:42:71
  TRACK 56 AUDIO
    TITLE "8:cjc058_3848"
    INDEX 01 01:43:23
  TRACK 57 AUDIO
    TITLE "0:"
    INDEX 01 01:44:60
  TRACK 58 AUDIO
    TITLE "9:cjc058_3849"
    INDEX 01 01:45:26
  TRACK 59 AUDIO
    TITLE "0:"
    INDEX 01 01:52:65
  TRACK 60 AUDIO
    TITLE "7:cjc058_3850"
    INDEX 01 01:53:67
  TRACK 61 AUDIO
    TITLE "0:"
    INDEX 01 01:56:00
  TRACK 62 AUDIO
    TITLE "8:cjc058_3851"
    INDEX 01 01:56:28
  TRACK 63 AUDIO
    TITLE "0:"
    INDEX 01 01:58:27
  TRACK 64 AUDIO
    TITLE "9:cjc058_3852"
    INDEX 01 01:58:68
  TRACK 65 AUDIO
    TITLE "0:"
    INDEX 01 02:02:44
  TRACK 66 AUDIO
    TITLE "7:cjc058_3853"
    INDEX 01 02:03:45
  TRACK 67 AUDIO
    TITLE "0:"
    INDEX 01 02:05:15
  TRACK 68 AUDIO
    TITLE "8:cjc058_3854"
    INDEX 01 02:05:42
  TRACK 69 AUDIO
    TITLE "0:"
    INDEX 01 02:08:01
  TRACK 70 AUDIO
    TITLE "9:cjc058_3855"
    INDEX 01 02:08:41
  TRACK 71 AUDIO
    TITLE "0:"
    INDEX 01 02:12:40
  TRACK 72 AUDIO
    TITLE "7:cjc058_3856"
    INDEX 01 02:13:44
  TRACK 73 AUDIO
    TITLE "0:"
    INDEX 01 02:15:39
  TRACK 74 AUDIO
    TITLE "8:cjc058_3857"
    INDEX 01 02:15:68
  TRACK 75 AUDIO
    TITLE "0:"
    INDEX 01 02:19:58
  TRACK 76 AUDIO
    TITLE "9:cjc058_3858"
    INDEX 01 02:20:24
  TRACK 77 AUDIO
    TITLE "0:"
    INDEX 01 02:26:72
  TRACK 78 AUDIO
    TITLE "7:cjc058_3859"
    INDEX 01 02:28:00
  TRACK 79 AUDIO
    TITLE "0:"
    INDEX 01 02:30:09
  TRACK 80 AUDIO
    TITLE "8:cjc058_3860"
    INDEX 01 02:30:38
  TRACK 81 AUDIO
    TITLE "0:"
    INDEX 01 02:33:45
  TRACK 82 AUDIO
    TITLE "9:cjc058_3861"
    INDEX 01 02:34:05
  TRACK 83 AUDIO
    TITLE "0:"
    INDEX 01 02:39:67
  TRACK 84 AUDIO
    TITLE "7:cjc058_3862"
    INDEX 01 02:41:01
  TRACK 85 AUDIO
    TITLE "0:"
    INDEX 01 02:42:67
  TRACK 86 AUDIO
    TITLE "8:cjc058_3863"
    INDEX 01 02:43:21
  TRACK 87 AUDIO
    TITLE "0:"
    INDEX 01 02:46:31
  TRACK 88 AUDIO
    TITLE "9:cjc058_3864"
    INDEX 01 02:46:73
  TRACK 89 AUDIO
    TITLE "0:"
    INDEX 01 02:52:22
  TRACK 90 AUDIO
    TITLE "7:cjc058_3865"
    INDEX 01 02:53:26
  TRACK 91 AUDIO
    TITLE "0:"
    INDEX 01 02:55:15
  TRACK 92 AUDIO
    TITLE "8:cjc058_3866"
    INDEX 01 02:55:44
  TRACK 93 AUDIO
    TITLE "0:"
    INDEX 01 02:59:50
  TRACK 94 AUDIO
    TITLE "9:cjc058_3867"
    INDEX 01 03:00:16
  TRACK 95 AUDIO
    TITLE "0:"
    INDEX 01 03:09:60
  TRACK 96 AUDIO
    TITLE "7:cjc058_3868"
    INDEX 01 03:10:61
  TRACK 97 AUDIO
    TITLE "0:"
    INDEX 01 03:12:15
  TRACK 98 AUDIO
    TITLE "8:cjc058_3869"
    INDEX 01 03:12:45
  TRACK 99 AUDIO
    TITLE "0:"
    INDEX 01 03:16:33
  TRACK 100 AUDIO
    TITLE "9:cjc058_3870"
    INDEX 01 03:16:72
  TRACK 101 AUDIO
    TITLE "0:"
    INDEX 01 03:22:49
  TRACK 102 AUDIO
    TITLE "7:cjc058_3871"
    INDEX 01 03:23:50
  TRACK 103 AUDIO
    TITLE "0:"
    INDEX 01 03:25:45
  TRACK 104 AUDIO
    TITLE "8:cjc058_3872"
    INDEX 01 03:25:73
  TRACK 105 AUDIO
    TITLE "0:"
    INDEX 01 03:29:12
  TRACK 106 AUDIO
    TITLE "9:cjc058_3873"
    INDEX 01 03:29:55
  TRACK 107 AUDIO
    TITLE "0:"
    INDEX 01 03:34:21
  TRACK 108 AUDIO
    TITLE "7:cjc058_3874"
    INDEX 01 03:35:24
  TRACK 109 AUDIO
    TITLE "0:"
    INDEX 01 03:36:72
  TRACK 110 AUDIO
    TITLE "8:cjc058_3875"
    INDEX 01 03:37:25
  TRACK 111 AUDIO
    TITLE "0:"
    INDEX 01 03:40:12
  TRACK 112 AUDIO
    TITLE "9:cjc058_3876"
    INDEX 01 03:40:53
  TRACK 113 AUDIO
    TITLE "0:"
    INDEX 01 03:45:32
  TRACK 114 AUDIO
    TITLE "7:cjc058_3877"
    INDEX 01 03:46:38
  TRACK 115 AUDIO
    TITLE "0:"
    INDEX 01 03:48:01
  TRACK 116 AUDIO
    TITLE "8:cjc058_3878"
    INDEX 01 03:48:31
  TRACK 117 AUDIO
    TITLE "0:"
    INDEX 01 03:50:02
  TRACK 118 AUDIO
    TITLE "9:cjc058_3879"
    INDEX 01 03:50:43
  TRACK 119 AUDIO
    TITLE "0:"
    INDEX 01 03:56:42
  TRACK 120 AUDIO
    TITLE "7:cjc058_3880"
    INDEX 01 03:57:45
  TRACK 121 AUDIO
    TITLE "0:"
    INDEX 01 03:59:11
  TRACK 122 AUDIO
    TITLE "8:cjc058_3881"
    INDEX 01 03:59:38
  TRACK 123 AUDIO
    TITLE "0:"
    INDEX 01 04:02:48
  TRACK 124 AUDIO
    TITLE "9:cjc058_3882"
    INDEX 01 04:03:15
  TRACK 125 AUDIO
    TITLE "0:"
    INDEX 01 04:06:54
  TRACK 126 AUDIO
    TITLE "7:cjc058_3883"
    INDEX 01 04:07:55
  TRACK 127 AUDIO
    TITLE "0:"
    INDEX 01 04:09:13
  TRACK 128 AUDIO
    TITLE "8:cjc058_3884"
    INDEX 01 04:09:43
  TRACK 129 AUDIO
    TITLE "0:"
    INDEX 01 04:11:06
  TRACK 130 AUDIO
    TITLE "9:cjc058_3885"
    INDEX 01 04:11:47
  TRACK 131 AUDIO
    TITLE "0:"
    INDEX 01 04:15:31
  TRACK 132 AUDIO
    TITLE "7:cjc058_3886"
    INDEX 01 04:16:33
  TRACK 133 AUDIO
    TITLE "0:"
    INDEX 01 04:18:51
  TRACK 134 AUDIO
    TITLE "8:cjc058_3887"
    INDEX 01 04:19:06
  TRACK 135 AUDIO
    TITLE "0:"
    INDEX 01 04:21:05
  TRACK 136 AUDIO
    TITLE "9:cjc058_3888"
    INDEX 01 04:21:46
  TRACK 137 AUDIO
    TITLE "0:"
    INDEX 01 04:29:55
  TRACK 138 AUDIO
    TITLE "7:cjc058_3889"
    INDEX 01 04:30:54
  TRACK 139 AUDIO
    TITLE "0:"
    INDEX 01 04:32:10
  TRACK 140 AUDIO
    TITLE "8:cjc058_3890"
    INDEX 01 04:32:40
  TRACK 141 AUDIO
    TITLE "0:"
    INDEX 01 04:33:69
  TRACK 142 AUDIO
    TITLE "9:cjc058_3891"
    INDEX 01 04:34:33
  TRACK 143 AUDIO
    TITLE "0:"
    INDEX 01 04:40:06
  TRACK 144 AUDIO
    TITLE "7:cjc058_3892"
    INDEX 01 04:41:09
  TRACK 145 AUDIO
    TITLE "0:"
    INDEX 01 04:42:38
  TRACK 146 AUDIO
    TITLE "8:cjc058_3893"
    INDEX 01 04:42:67
  TRACK 147 AUDIO
    TITLE "0:"
    INDEX 01 04:46:10
  TRACK 148 AUDIO
    TITLE "9:cjc058_3894"
    INDEX 01 04:46:52
  TRACK 149 AUDIO
    TITLE "0:"
    INDEX 01 04:55:31
  TRACK 150 AUDIO
    TITLE "7:cjc058_3895"
    INDEX 01 04:56:36
  TRACK 151 AUDIO
    TITLE "0:"
    INDEX 01 04:57:71
  TRACK 152 AUDIO
    TITLE "8:cjc058_3896"
    INDEX 01 04:58:21
  TRACK 153 AUDIO
    TITLE "0:"
    INDEX 01 05:01:73
  TRACK 154 AUDIO
    TITLE "9:cjc058_3897"
    INDEX 01 05:02:39
  TRACK 155 AUDIO
    TITLE "0:"
    INDEX 01 05:07:44
  TRACK 156 AUDIO
    TITLE "7:cjc058_3898"
    INDEX 01 05:08:47
  TRACK 157 AUDIO
    TITLE "0:"
    INDEX 01 05:09:64
  TRACK 158 AUDIO
    TITLE "8:cjc058_3899"
    INDEX 01 05:10:19
  TRACK 159 AUDIO
    TITLE "0:"
    INDEX 01 05:11:46
  TRACK 160 AUDIO
    TITLE "9:cjc058_3900"
    INDEX 01 05:12:14
  TRACK 161 AUDIO
    TITLE "0:"
    INDEX 01 05:16:47
  TRACK 162 AUDIO
    TITLE "7:cjc058_3901"
    INDEX 01 05:17:50
  TRACK 163 AUDIO
    TITLE "0:"
    INDEX 01 05:19:31
  TRACK 164 AUDIO
    TITLE "8:cjc058_3902"
    INDEX 01 05:19:61
  TRACK 165 AUDIO
    TITLE "0:"
    INDEX 01 05:22:08
  TRACK 166 AUDIO
    TITLE "9:cjc058_3903"
    INDEX 01 05:22:51
  TRACK 167 AUDIO
    TITLE "0:"
    INDEX 01 05:26:06
  TRACK 168 AUDIO
    TITLE "7:cjc058_3904"
    INDEX 01 05:27:11
  TRACK 169 AUDIO
    TITLE "0:"
    INDEX 01 05:28:66
  TRACK 170 AUDIO
    TITLE "8:cjc058_3905"
    INDEX 01 05:29:18
  TRACK 171 AUDIO
    TITLE "0:"
    INDEX 01 05:32:26
  TRACK 172 AUDIO
    TITLE "9:cjc058_3906"
    INDEX 01 05:32:67
  TRACK 173 AUDIO
    TITLE "0:"
    INDEX 01 05:38:11
  TRACK 174 AUDIO
    TITLE "7:cjc058_3907"
    INDEX 01 05:39:15
  TRACK 175 AUDIO
    TITLE "0:"
    INDEX 01 05:40:69
  TRACK 176 AUDIO
    TITLE "8:cjc058_3908"
    INDEX 01 05:41:23
  TRACK 177 AUDIO
    TITLE "0:"
    INDEX 01 05:44:27
  TRACK 178 AUDIO
    TITLE "9:cjc058_3909"
    INDEX 01 05:44:65
  TRACK 179 AUDIO
    TITLE "0:"
    INDEX 01 05:49:56
  TRACK 180 AUDIO
    TITLE "7:cjc058_3910"
    INDEX 01 05:50:61
  TRACK 181 AUDIO
    TITLE "0:"
    INDEX 01 05:52:13
  TRACK 182 AUDIO
    TITLE "8:cjc058_3911"
    INDEX 01 05:52:41
  TRACK 183 AUDIO
    TITLE "0:"
    INDEX 01 05:55:57
  TRACK 184 AUDIO
    TITLE "9:cjc058_3912"
    INDEX 01 05:56:23
  TRACK 185 AUDIO
    TITLE "0:"
    INDEX 01 06:01:67
  TRACK 186 AUDIO
    TITLE "7:cjc058_3913"
    INDEX 01 06:02:70
  TRACK 187 AUDIO
    TITLE "0:"
    INDEX 01 06:04:36
  TRACK 188 AUDIO
    TITLE "8:cjc058_3914"
    INDEX 01 06:04:63
  TRACK 189 AUDIO
    TITLE "0:"
    INDEX 01 06:06:37
  TRACK 190 AUDIO
    TITLE "9:cjc058_3915"
    INDEX 01 06:07:05
  TRACK 191 AUDIO
    TITLE "0:"
    INDEX 01 06:12:47
  TRACK 192 AUDIO
    TITLE "7:cjc058_3916"
    INDEX 01 06:13:51
  TRACK 193 AUDIO
    TITLE "0:"
    INDEX 01 06:14:70
  TRACK 194 AUDIO
    TITLE "8:cjc058_3917"
    INDEX 01 06:15:22
  TRACK 195 AUDIO
    TITLE "0:"
    INDEX 01 06:16:43
  TRACK 196 AUDIO
    TITLE "9:cjc058_3918"
    INDEX 01 06:17:07
  TRACK 197 AUDIO
    TITLE "0:"
    INDEX 01 06:20:70
